<svg viewBox="0 0 500 500" xmlns="http://www.w3.org/2000/svg" xmlns:bx="https://boxy-svg.com">
  <defs>
    <path id="path-0" d="M 122.068 138.714 C 318.707 187.673 357.135 196.482 395.356 206.133 C 404.909 208.546 393.335 225.018 391.744 230.814 C 389.35 239.534 384.521 253.8 384.521 264.523 C 385.123 270.862 385.434 276.853 382.113 280.174 C 351.349 299.627 323.938 308.319 293.625 304.854 C 130.168 286.173 381.501 314.531 236.439 294.621 C 206.639 286.293 195.851 268.696 190.089 254.29 C 189.487 238.287 193.101 222.993 187.681 210.347 L 184.671 204.929 C 177.555 194.764 167.191 188.542 156.379 182.657 C 127.74 167.068 99.041 151.995 66.688 147.142" style="fill: none;"></path>
  </defs>
  <path style="fill: rgb(65, 68, 102); stroke-width: 21px; stroke-linejoin: round; stroke-linecap: round; stroke: rgb(22, 21, 23);" d="M 70.63466666666666 36.598 C 59.12866666666667 40.59033333333333 51.86233333333333 48.42966666666666 45.180499999999995 65.19633333333333 C 38.498666666666665 81.96300000000001 32.40133333333333 107.657 34.25183333333333 130.08483333333334 C 36.10233333333333 152.51266666666666 45.900666666666666 171.67433333333335 47.7515 192.3601666666667 C 49.60233333333333 213.04600000000002 43.50566666666666 235.256 40.56616666666667 257.9016666666667 C 37.626666666666665 280.54733333333337 37.84433333333333 303.6286666666667 44.921166666666664 333.7866666666667 C 51.998 363.9446666666666 65.93400000000001 401.1793333333333 88.57966666666668 423.06283333333334 C 111.22533333333335 444.9463333333333 142.58066666666667 451.4786666666667 184.71450000000002 453.2205000000001 C 226.84833333333336 454.9623333333334 279.7606666666667 451.91366666666664 317.32183333333336 453.00233333333335 C 354.883 454.09100000000007 377.093 459.317 398.2145 455.0710000000001 C 419.336 450.825 439.36899999999997 437.10699999999997 448.18783333333334 415.65900000000005 C 457.00666666666666 394.211 454.61133333333333 365.0330000000001 453.74033333333335 337.59700000000004 C 452.8693333333333 310.161 453.5226666666667 284.46700000000004 454.39366666666666 256.92216666666667 C 455.26466666666664 229.37733333333335 456.3533333333333 199.98166666666668 459.6195 177.00933333333333 C 462.88566666666674 154.037 468.32933333333335 137.488 463.43 124.532 C 458.5306666666667 111.57599999999998 443.28833333333336 102.21300000000001 425.2153333333333 90.0195 C 407.1423333333333 77.826 386.23866666666663 62.802 356.2291666666667 59.11816666666667 C 326.2196666666667 55.434333333333335 287.10433333333333 63.090666666666664 255.49283333333332 61.05783333333334 C 223.88133333333334 59.025 199.77366666666668 47.303 177.38083333333336 40.89766666666667 C 154.988 34.492333333333335 134.31 33.403666666666666 116.09816666666666 32.932 C 97.88633333333333 32.46033333333333 82.14066666666666 32.605666666666664 70.63466666666666 36.598" bx:d="M 66.395 32.751 U 44.596 56.269 U 26.304 133.351 U 55.699 190.836 U 37.409 257.466 U 38.062 326.71 U 79.87 438.414 U 173.936 458.011 U 332.673 448.865 U 399.303 464.543 U 459.402 423.389 U 452.216 335.855 U 454.176 258.773 U 457.442 170.586 U 473.773 120.939 U 428.046 92.85 U 365.335 47.778 U 247.989 70.747 U 175.666 35.581 U 113.632 32.315 Z 1@40979a55"></path>
  <path style="stroke: rgb(0, 0, 0); stroke-width: 0px; fill: rgba(0, 0, 0, 0.17); stroke-linecap: round; stroke-linejoin: round;" d="M 82.28933333333333 278.32800000000003 C 72.08733333333333 280.5833333333333 58.01466666666666 284.6666666666667 53.373333333333335 298.46633333333335 C 48.732 312.266 53.522 335.782 58.747833333333325 354.83466666666664 C 63.97366666666667 373.88733333333334 69.63533333333334 388.47666666666663 76.821 399.7998333333333 C 84.00666666666666 411.123 92.71633333333334 419.18 102.95033333333333 425.8213333333333 C 113.18433333333333 432.4626666666666 124.94266666666665 437.68833333333333 146.82616666666667 441.38983333333334 C 168.70966666666666 445.0913333333333 200.71833333333333 447.26866666666666 231.8563333333333 447.81300000000005 C 262.9943333333333 448.3573333333334 293.26166666666666 447.26866666666666 318.62933333333336 447.5953333333334 C 343.997 447.922 364.465 449.664 380.3603333333333 448.68433333333337 C 396.2556666666667 447.7046666666667 407.5783333333334 444.00333333333333 416.50600000000003 438.34200000000004 C 425.4336666666666 432.68066666666664 431.96633333333335 425.0593333333333 437.0833333333333 414.8251666666667 C 442.2003333333334 404.59099999999995 445.90166666666664 391.74399999999997 447.75233333333335 380.3121666666666 C 449.603 368.88033333333334 449.603 358.86366666666663 448.84083333333336 346.66966666666667 C 448.0786666666666 334.47566666666665 446.5543333333333 320.10433333333333 422.27549999999997 320.21316666666667 C 397.99666666666667 320.322 350.9633333333333 334.911 304.36583333333334 335.4556666666667 C 257.7683333333334 336.00033333333334 211.60666666666665 322.50066666666663 184.7015 311.9343333333333 C 157.79633333333334 301.368 150.14766666666665 293.73499999999996 140.09916666666666 288.1045 C 130.05066666666667 282.474 117.60233333333333 278.846 108.21249999999999 277.2456666666667 C 98.82266666666665 275.6453333333333 92.49133333333333 276.0726666666667 82.28933333333333 278.32800000000003" bx:d="M 86.16 276.5 U 43.942 288.75 U 58.312 359.298 U 75.297 403.066 U 101.426 427.237 U 136.701 442.914 U 232.727 449.446 U 323.529 446.18 U 384.933 451.406 U 418.901 440.302 U 438.499 417.438 U 449.603 378.897 U 449.603 348.847 U 445.03 305.733 U 303.93 349.5 U 165.445 309.001 U 142.499 286.102 U 105.154 275.218 Z 1@39feb9eb"></path>
  <path style="fill: rgb(229, 223, 255); stroke-width: 21px; stroke: rgb(22, 21, 23);" d="M 147.107 160.71566666666666 C 216.22799999999998 173.63333333333333 354.47 199.46866666666665 401.382 245.70050000000003 C 448.29400000000004 291.93233333333336 403.87600000000003 358.5606666666667 339.74083333333334 366.0393333333334 C 275.60566666666665 373.51800000000003 191.75333333333333 321.847 144.84133333333332 275.61516666666665 C 97.92933333333333 229.38333333333333 87.95766666666667 188.59066666666664 82.97183333333334 168.19433333333333 C 77.986 147.798 77.986 147.798 77.986 147.798 C 77.986 147.798 77.986 147.798 147.107 160.71566666666666" transform="matrix(0.866025, 0.5, -0.5, 0.866025, 162.059983, -90.252149)" bx:d="M 77.986 147.798 U 492.712 225.304 U 359.458 425.189 U 107.901 270.176 U 77.986 147.798 U 77.986 147.798 Z 1@e8402d90"></path>
  <path style="stroke: rgb(0, 0, 0); stroke-width: 0px; fill: rgb(213, 213, 223);" d="M 272.3593333333333 265.25600000000003 C 286.45533333333333 260.53366666666665 301.1766666666667 248.72833333333332 318.4671666666666 257.33866666666665 C 335.7576666666667 265.949 355.6173333333333 294.97499999999997 366.2418333333333 314.21 C 376.86633333333333 333.445 378.2556666666666 342.88899999999995 376.93666666666667 350.59666666666664 C 375.6176666666667 358.3043333333333 371.5903333333333 364.27566666666667 359.6465 372.81683333333336 C 347.70266666666663 381.358 327.84233333333333 392.469 304.64916666666664 388.9275 C 281.456 385.38599999999997 254.92999999999998 367.192 234.79233333333332 347.60983333333326 C 214.65466666666666 328.0276666666667 200.90533333333335 307.05733333333336 195.76683333333335 295.11383333333333 C 190.62833333333333 283.1703333333333 194.10066666666668 280.2536666666667 201.46166666666667 276.782 C 208.8226666666667 273.31033333333335 220.07233333333332 269.28366666666665 232.4325 268.4506666666667 C 244.79266666666663 267.6176666666667 258.2633333333333 269.9783333333333 272.3593333333333 265.25600000000003" bx:d="M 271.734 272.339 U 315.898 236.923 U 375.477 324.001 U 379.645 352.333 U 367.563 370.247 U 307.982 403.58 U 228.404 348.998 U 187.156 286.087 U 197.573 277.337 U 231.322 265.257 Z 1@7d7461c5"></path>
</svg>
